<?xml version="1.0" encoding="UTF-8" standalone="no"?>
<svg
   xmlns:dc="http://purl.org/dc/elements/1.1/"
   xmlns:cc="http://creativecommons.org/ns#"
   xmlns:rdf="http://www.w3.org/1999/02/22-rdf-syntax-ns#"
   xmlns:svg="http://www.w3.org/2000/svg"
   xmlns="http://www.w3.org/2000/svg"
   xmlns:sodipodi="http://sodipodi.sourceforge.net/DTD/sodipodi-0.dtd"
   xmlns:inkscape="http://www.inkscape.org/namespaces/inkscape"
   version="1.0"
   width="1063.636pt"
   height="1059.9965pt"
   viewBox="0 0 1063.636 1059.9965"
   preserveAspectRatio="xMidYMid meet"
   id="svg34"
   sodipodi:docname="book-a-time-bw.svg"
   inkscape:version="0.92.4 (5da689c313, 2019-01-14)">
  <defs
     id="defs38" />
  <sodipodi:namedview
     pagecolor="#ffffff"
     bordercolor="#666666"
     borderopacity="1"
     objecttolerance="10"
     gridtolerance="10"
     guidetolerance="10"
     inkscape:pageopacity="0"
     inkscape:pageshadow="2"
     inkscape:window-width="1920"
     inkscape:window-height="1137"
     id="namedview36"
     showgrid="false"
     inkscape:zoom="0.39111844"
     inkscape:cx="125.7829"
     inkscape:cy="598.15059"
     inkscape:window-x="1912"
     inkscape:window-y="-8"
     inkscape:window-maximized="1"
     inkscape:current-layer="g32"
     fit-margin-top="0"
     fit-margin-left="0"
     fit-margin-right="0"
     fit-margin-bottom="0" />
  <metadata
     id="metadata2">
Created by potrace 1.15, written by Peter Selinger 2001-2017
<rdf:RDF>
  <cc:Work
     rdf:about="">
    <dc:format>image/svg+xml</dc:format>
    <dc:type
       rdf:resource="http://purl.org/dc/dcmitype/StillImage" />
    <dc:title></dc:title>
  </cc:Work>
</rdf:RDF>
</metadata>
  <g
     transform="matrix(0.1,0,0,-0.1,-0.17092019,1060.5965)"
     id="g32"
     style="fill:#000000;stroke:none">
    <path
       d="M 4541.1876,10538.297 C 2824.1975,10266.028 2133.8457,9608.7501 1429,8943 893.22462,8436.9424 543,7769 290,7048 55,6384 -42,5594 20,4865 150,3357 911,1983 2125,1068 2924,465 3857,110 4880,18 c 187,-16 693,-16 880,0 914,82 1735,366 2480,857 1145,755 1955,1915 2260,3235 203,877 182,1781 -62,2658 -136,492 -382,1028 -673,1471 -345,525 -815,1017 -1325,1386 -577,418 -1230.9953,717.154 -1915,873 -644.8803,146.932 -1430.2163,127.091 -1983.8124,40.297 z M 5687,9825 c 971,-83 1854,-452 2588,-1084 732,-630 1254,-1499 1459,-2431 81,-368 101,-562 101,-990 0,-380 -8,-489 -61,-790 C 9583,3431 8977,2431 8085,1740 7513,1297 6815,988 6110,866 c -311,-54 -400,-61 -790,-61 -390,0 -479,7 -790,61 -1118,194 -2143,825 -2831,1744 -486,648 -774,1374 -876,2210 -26,208 -25,793 0,1000 89,717 303,1326 670,1910 543,862 1382,1528 2342,1860 590,204 1243,287 1852,235 z"
       id="path4"
       inkscape:connector-curvature="0"
       sodipodi:nodetypes="csccccccccccaccccscccsccccccc" />
    <path
       d="m 5270,9360 v -240 h 50 50 v 240 240 h -50 -50 z"
       id="path6"
       inkscape:connector-curvature="0" />
    <path
       d="m 3180,9028 c -19,-12 -36,-23 -38,-24 -2,-1 217,-387 234,-412 5,-7 84,39 84,49 0,14 -230,409 -238,409 -4,0 -23,-10 -42,-22 z"
       id="path8"
       inkscape:connector-curvature="0" />
    <path
       d="m 7296,8844 c -65,-113 -117,-206 -115,-208 20,-15 81,-47 83,-45 11,13 237,411 234,413 -12,9 -76,46 -79,46 -3,0 -58,-93 -123,-206 z"
       id="path10"
       inkscape:connector-curvature="0" />
    <path
       d="m 5247,8788 -75,-143 -11,-440 c -6,-242 -16,-593 -21,-780 -18,-611 -29,-1035 -36,-1303 l -7,-263 -54,-26 c -174,-86 -304,-298 -305,-502 -2,-162 50,-296 156,-409 118,-125 258,-186 426,-186 168,0 308,61 426,186 147,156 196,379 127,580 -16,46 -46,110 -67,141 -49,73 -140,156 -211,191 l -55,27 v 57 c 0,31 -16,659 -35,1394 l -35,1337 -70,141 c -39,77 -72,140 -74,140 -3,0 -38,-64 -79,-142 z m 161,-3305 c 71,-33 114,-132 93,-210 -22,-80 -101,-143 -181,-143 -48,0 -110,31 -143,69 -31,38 -51,103 -43,144 27,134 151,198 274,140 z"
       id="path12"
       inkscape:connector-curvature="0" />
    <path
       d="m 1621,7466 c -12,-18 -21,-37 -21,-42 0,-10 389,-237 404,-236 5,0 19,18 32,39 l 23,39 -203,117 c -112,64 -206,117 -209,117 -3,0 -15,-15 -26,-34 z"
       id="path14"
       inkscape:connector-curvature="0" />
    <path
       d="m 8790,7386 c -107,-62 -195,-117 -197,-122 -2,-5 7,-26 20,-46 l 22,-37 135,78 c 74,42 167,96 207,119 l 71,42 -21,40 c -12,22 -26,40 -32,39 -5,0 -98,-51 -205,-113 z"
       id="path16"
       inkscape:connector-curvature="0" />
    <path
       d="m 1049,5373 c -4,-15 0,-93 5,-93 3,0 110,0 236,0 h 230 v 48 47 h -235 c -129,0 -235,-1 -236,-2 z"
       id="path18"
       inkscape:connector-curvature="0" />
    <path
       d="m 9120,5328 v -48 h 241 240 l -3,45 -3,46 -238,2 -237,2 z"
       id="path20"
       inkscape:connector-curvature="0" />
    <path
       d="m 1805,3353 c -110,-63 -202,-116 -203,-118 -6,-6 8,-39 27,-64 l 18,-24 206,119 206,119 -21,35 c -12,19 -24,38 -27,42 -3,4 -96,-45 -206,-109 z"
       id="path22"
       inkscape:connector-curvature="0" />
    <path
       d="m 8611,3429 c -13,-22 -19,-44 -15,-49 14,-13 393,-230 401,-230 5,0 18,18 30,40 l 21,40 -96,57 c -53,31 -146,85 -205,120 -60,34 -110,63 -111,63 -1,0 -13,-18 -25,-41 z"
       id="path24"
       inkscape:connector-curvature="0" />
    <path
       d="m 3258,1854 -117,-205 41,-25 c 22,-14 44,-22 48,-17 12,13 230,395 230,403 0,6 -73,51 -81,50 -2,-1 -57,-93 -121,-206 z"
       id="path26"
       inkscape:connector-curvature="0" />
    <path
       d="m 7220,2038 c -19,-12 -37,-23 -39,-24 -2,-2 224,-400 235,-413 2,-2 62,30 83,45 4,4 -232,414 -239,414 -3,0 -21,-10 -40,-22 z"
       id="path28"
       inkscape:connector-curvature="0" />
    <path
       d="m 5270,1290 v -240 h 50 50 v 240 240 h -50 -50 z"
       id="path30"
       inkscape:connector-curvature="0" />
    <path
       style="fill:#000000;fill-opacity:1;stroke:#000000;stroke-width:7.5px;stroke-linecap:butt;stroke-linejoin:miter;stroke-opacity:1"
       d="m 5315.2544,5315.2541 10.8179,3614.6655 c 0,0 1431.2543,-46.1962 2492.5829,-1036.09 C 8879.9839,6903.9357 8918.6545,5328 8918.6545,5328 Z"
       id="path4549"
       inkscape:connector-curvature="0"
       sodipodi:nodetypes="cczcc" />
    <path
       id="path4551"
       d="m 8788.0424,5390.5812 -143,75 -440,11 c -242,6 -593,16 -780,21 -611,18 -1035,29 -1303,36 l -263,7 -26,54 c -86,174 -298,304 -502,305 -162,2 -296,-50 -409,-156 -125,-118 -186,-258 -186,-426 0,-168 61,-308 186,-426 156,-147 379,-196 580,-127 46,16 110,46 141,67 73,49 156,140 191,211 l 27,55 h 57 c 31,0 659,16 1394,35 l 1337,35 141,70 c 77,39 140,72 140,74 0,3 -64,38 -142,79 z m -3305,-161 c -33,-71 -132,-114 -210,-93 -80,22 -143,101 -143,181 0,48 31,110 69,143 38,31 103,51 144,43 134,-27 198,-151 140,-274 z"
       inkscape:connector-curvature="0" />
    <circle
       style="fill:#ffffff;fill-opacity:1;stroke:none;stroke-width:7.47942591;stroke-miterlimit:4;stroke-dasharray:7.47942604, 7.47942604;stroke-dashoffset:0;stroke-opacity:1"
       id="path4553"
       cx="5307.0068"
       cy="-5326.1821"
       transform="scale(1,-1)"
       r="206.25" />
  </g>
</svg>
